<?xml version="1.0" standalone="no"?>
<!DOCTYPE svg PUBLIC "-//W3C//DTD SVG 1.1//EN" "http://www.w3.org/Graphics/SVG/1.1/DTD/svg11.dtd" >
<svg xmlns="http://www.w3.org/2000/svg">
<metadata></metadata>
<defs>
<font id="webfontregular" horiz-adv-x="1212" >
<font-face units-per-em="2048" ascent="1802" descent="-246" />
<missing-glyph horiz-adv-x="573" />
<glyph horiz-adv-x="0" />
<glyph horiz-adv-x="682" />
<glyph unicode=" "  horiz-adv-x="573" />
<glyph unicode="&#x09;" horiz-adv-x="573" />
<glyph unicode="&#xa0;" horiz-adv-x="573" />
<glyph unicode="A" horiz-adv-x="1370" d="M6 0l537 1520h286l535 -1520h-285l-129 381h-528l-129 -381h-287zM504 623h366l-182 542z" />
<glyph unicode="C" horiz-adv-x="1280" d="M82 760q0 375 162 580.5t493 205.5q160 0 271.5 -40t199.5 -144l-161 -178q-31 33 -61 54.5t-64.5 34.5t-76.5 18t-95 5q-92 0 -164 -26.5t-122 -89t-76 -165t-26 -255.5q0 -156 26 -259.5t77 -165t126 -87t173 -25.5t167.5 26.5t137.5 86.5l164 -168q-53 -59 -108.5 -97 t-114 -59.5t-123 -30t-135.5 -8.5q-344 0 -507 204t-163 583z" />
<glyph unicode="D" horiz-adv-x="1386" d="M143 0v1520h521q309 0 475 -199t166 -561q0 -178 -42 -318.5t-124 -239t-202 -150.5t-273 -52h-521zM418 246h213q201 0 297 119t96 395q0 141 -23.5 238.5t-72.5 159t-123 89t-174 27.5h-213v-1028z" />
<glyph unicode="E" horiz-adv-x="1257" d="M143 0v1520h1033v-246h-760v-367h633v-250h-633v-407h770v-250h-1043z" />
<glyph unicode="J" horiz-adv-x="917" d="M-23 76l132 211q33 -18 83 -41t107 -23q63 0 102 12.5t61.5 36t31 58.5t8.5 82v1108h272v-1139q0 -63 -17.5 -135t-68.5 -132.5t-142 -100.5t-241 -40q-82 0 -141.5 13.5t-99 31t-61 35t-26.5 23.5z" />
<glyph unicode="N" horiz-adv-x="1529" d="M143 0v1520h281l688 -1055v1055h274v-1520h-280l-688 1061v-1061h-275z" />
<glyph unicode="O" horiz-adv-x="1470" d="M82 760q0 139 32.5 279.5t108.5 253t201 183t311 70.5t311 -70.5t201 -183t109 -253t33 -279.5q0 -141 -33 -281.5t-109 -253t-200.5 -182.5t-311.5 -70q-186 0 -311 70t-201 182.5t-108.5 252.5t-32.5 282zM362 760q0 -166 30 -270.5t80 -164t117.5 -81t145.5 -21.5 q76 0 144.5 21.5t119 81t80 164t29.5 270.5q0 164 -29.5 268.5t-80 163.5t-119 81.5t-144.5 22.5q-78 0 -145.5 -22.5t-117.5 -81.5t-80 -163.5t-30 -268.5z" />
<glyph unicode="P" horiz-adv-x="1261" d="M143 0v1520h566q276 0 409 -133t133 -369q0 -242 -132 -370t-410 -128h-291v-520h-275zM418 766h260q90 0 147.5 14.5t89 45t44 78.5t12.5 114q0 68 -12.5 116t-44 78.5t-89 46t-147.5 15.5h-260v-508z" />
<glyph unicode="R" horiz-adv-x="1363" d="M143 0v1520h586q276 0 400 -116t124 -355q0 -129 -65.5 -236.5t-175.5 -177.5l362 -635h-309l-315 573h-332v-573h-275zM418 827h327q131 0 179.5 55.5t48.5 166.5q0 57 -12.5 100t-43 70.5t-83 41t-134.5 13.5h-282v-447z" />
<glyph unicode="T" horiz-adv-x="1142" d="M10 1270v250h1123v-250h-424v-1270h-275v1270h-424z" />
<glyph unicode="W" horiz-adv-x="1955" d="M6 1520h289l250 -1100l286 1100h297l289 -1100l246 1100h287l-377 -1520h-311l-281 1094l-283 -1094h-315z" />
<glyph unicode="c" horiz-adv-x="997" d="M72 557q0 276 128 430t382 154q70 0 125 -13.5t100 -37t82 -54t67 -63.5l-141 -182q-47 49 -94 80.5t-129 31.5q-55 0 -101.5 -14.5t-80 -53t-53 -106t-19.5 -172.5q0 -100 21.5 -165.5t56.5 -104.5t82 -55.5t98 -16.5q74 0 134.5 34t107.5 83l139 -180 q-27 -31 -61.5 -63t-83 -56.5t-109.5 -40t-141 -15.5q-129 0 -225.5 40t-159 116t-94 182.5t-31.5 241.5z" />
<glyph unicode="d" d="M72 559q0 143 37.5 253t101 184.5t147.5 112.5t177 38q92 0 165.5 -25.5t126.5 -81.5v557h263v-1597h-234v109q-53 -70 -135 -101t-186 -31q-92 0 -175.5 37t-148 111t-102 182.5t-37.5 251.5zM336 559q0 -102 18.5 -167.5t52 -104.5t77.5 -54.5t98 -15.5q51 0 99 15.5 t84 54.5t57.5 104.5t21.5 167.5q0 100 -21.5 168t-57.5 107.5t-84 56t-99 16.5q-53 0 -97.5 -16.5t-78 -56t-52 -107.5t-18.5 -168z" />
<glyph unicode="e" horiz-adv-x="1110" d="M72 557q0 283 126 433.5t382 150.5q123 0 210 -38t142 -110.5t80.5 -176t25.5 -232.5v-113h-704q6 -141 78.5 -198.5t203.5 -57.5q98 0 165 41t116 86l141 -174q-51 -51 -95 -87t-92 -59.5t-105.5 -34t-137.5 -10.5q-256 0 -396 145.5t-140 434.5zM344 682h438 q0 111 -58 166t-151 55q-104 0 -166.5 -55t-62.5 -166z" />
<glyph unicode="j" horiz-adv-x="606" d="M-182 -440l104 217q31 -25 78 -32t84 -7q43 0 78 33.5t35 138.5v1212h260v-1233q0 -199 -99.5 -297t-291.5 -98q-59 0 -124 10.5t-124 55.5zM186 1446q0 61 40 103t106 42t105.5 -42t39.5 -103t-40 -105.5t-105 -44.5q-66 0 -106 44t-40 106z" />
<glyph unicode="n" horiz-adv-x="1185" d="M123 0v1118h231v-100q20 25 54 47t75 38.5t85 27t87 10.5q82 0 158 -21.5t134.5 -70t92 -125t33.5 -185.5v-739h-262v725q0 88 -43 133t-141 45q-117 0 -179.5 -62.5t-62.5 -166.5v-674h-262z" />
<glyph unicode="o" horiz-adv-x="1163" d="M72 557q0 289 134 436.5t376 147.5t376 -147.5t134 -436.5t-134.5 -434.5t-375.5 -145.5q-242 0 -376 145.5t-134 434.5zM336 557q0 -102 18.5 -168.5t52 -106.5t77.5 -56.5t98 -16.5q51 0 96 16.5t79 56.5t52 106.5t18 168.5q0 100 -18 169t-52 108.5t-79 57t-96 17.5 q-53 0 -97.5 -17.5t-78 -57t-52 -108.5t-18.5 -169z" />
<glyph unicode="p" d="M123 -465v1583h233v-106q41 63 122 96t186 33q92 0 175 -37t145.5 -110.5t99 -182.5t36.5 -252t-35.5 -252.5t-98 -184.5t-145.5 -113t-177 -38q-82 0 -159 30t-120 85v-551h-262zM369 559q0 -102 19.5 -168.5t52 -106.5t77.5 -56.5t98 -16.5t97.5 16.5t76 56.5t49 106.5 t17.5 168.5q0 100 -17.5 167t-49 106.5t-75.5 55t-98 15.5q-53 0 -98 -15.5t-77.5 -55t-52 -106.5t-19.5 -167z" />
<glyph unicode="r" horiz-adv-x="735" d="M123 0v1118h229v-106q49 70 135 99.5t228 29.5v-248q-100 0 -165 -20.5t-101.5 -57.5t-51 -86t-14.5 -104v-625h-260z" />
<glyph unicode="t" horiz-adv-x="716" d="M51 895v227h105v217l260 33v-250h250v-227h-250v-516q0 -90 13 -128t79 -38q2 0 16.5 2t34 5t42 7t40.5 9l41 -222q-16 -8 -44 -15t-57.5 -11t-57 -7.5t-46.5 -3.5q-92 0 -153.5 16.5t-99.5 56.5t-53 106.5t-15 165.5v573h-105z" />
<glyph unicode="w" horiz-adv-x="1656" d="M-14 1118h280l187 -717l241 717h271l241 -717l189 717h276l-348 -1118h-229l-265 721l-266 -721h-231z" />
<glyph unicode="&#x2000;" horiz-adv-x="798" />
<glyph unicode="&#x2001;" horiz-adv-x="1597" />
<glyph unicode="&#x2002;" horiz-adv-x="798" />
<glyph unicode="&#x2003;" horiz-adv-x="1597" />
<glyph unicode="&#x2004;" horiz-adv-x="532" />
<glyph unicode="&#x2005;" horiz-adv-x="399" />
<glyph unicode="&#x2006;" horiz-adv-x="266" />
<glyph unicode="&#x2007;" horiz-adv-x="266" />
<glyph unicode="&#x2008;" horiz-adv-x="199" />
<glyph unicode="&#x2009;" horiz-adv-x="319" />
<glyph unicode="&#x200a;" horiz-adv-x="88" />
<glyph unicode="&#x202f;" horiz-adv-x="319" />
<glyph unicode="&#x205f;" horiz-adv-x="399" />
<glyph unicode="&#x25fc;" horiz-adv-x="1024" d="M0 0z" />
</font>
</defs>
</svg>
